<!DOCTYPE svg PUBLIC "-//W3C//DTD SVG 20010904//EN" "http://www.w3.org/TR/2001/REC-SVG-20010904/DTD/svg10.dtd">
<svg version="1.0" xmlns="http://www.w3.org/2000/svg" width="104px" height="90px" viewBox="0 0 104 90" preserveAspectRatio="xMidYMid meet">
 <g id="layer101" fill="#664d36" stroke="none">
  <path d="M0 45.1132 l0 -45.1132 52 0 52 0 0 45.1132 0 45.1132 -52 0 -52 0 0 -45.1132z"/>
</g>
 <g id="layer102" fill="#8c694d" stroke="none">
  <path d="M0 45.1132 l0 -45.1132 52 0 52 0 0 45.1132 0 45.1132 -52 0 -52 0 0 -45.1132z m39.524 -1.5969 c8.1443 -0.6188 12.5958 -2.595 10.1006 -4.4914 -0.9382 -0.7186 -3.2138 -1.4372 -6.1083 -1.9363 -3.3735 -0.5988 -12.4361 -0.6587 -15.8894 -0.0998 -4.1121 0.6388 -6.8468 1.6369 -7.306 2.6349 -1.1777 2.595 8.9827 4.6511 19.2031 3.8925z"/>
</g>
 <g id="layer103" fill="#b5946b" stroke="none">
  <path d="M0 45.1132 l0 -45.1132 52 0 52 0 0 45.1132 0 45.1132 -52 0 -52 0 0 -45.1132z m67.071 12.4161 l0 -29.3236 -4.5313 -1.3973 c-11.5578 -3.5931 -18.225 -5.729 -18.225 -5.8288 0 -0.0599 0.8384 -0.5789 1.8564 -1.1378 0.9981 -0.539 4.8906 -2.6948 8.6234 -4.7908 l6.7869 -3.7727 -0.9981 -0.1397 c-0.5589 -0.0599 -2.9543 -0.1397 -5.3298 -0.1397 -2.3954 -0.02 -4.3516 -0.0998 -4.3516 -0.1797 0 -0.0998 2.9144 -2.2357 6.4875 -4.7509 5.4695 -3.8326 6.4875 -4.6311 6.4875 -5.0303 0 -0.3593 -0.0599 -0.4392 -0.2395 -0.2994 -0.3194 0.2395 -11.3382 7.8649 -20.281 14.0131 -3.5532 2.4353 -6.6871 4.5313 -6.9866 4.6311 -0.7585 0.2994 -11.6376 3.2937 -13.3144 3.6729 -0.2196 0.0399 -2.076 0.539 -4.0921 1.0979 -5.8887 1.577 -13.7536 3.633 -14.9313 3.8925 l-0.6388 0.1397 0 29.3236 0 29.3236 31.8388 0 31.8388 0 0 -29.3036z"/>
  <path d="M8.5835 27.8265 c0.499 -0.1597 1.2576 -0.3793 1.6967 -0.4791 0.4392 -0.0998 2.3355 -0.5789 4.1919 -1.0779 3.2338 -0.8783 6.8069 -1.8165 14.4722 -3.8127 9.0825 -2.3754 7.9647 -1.9363 11.3382 -4.3317 0.8983 -0.6388 1.6768 -1.1578 1.7367 -1.1578 0.0599 0 0.0998 2.3355 0.0998 5.19 l0 5.19 10.2403 0 c9.5417 0 10.3002 0.0399 11.418 0.3992 1.1977 0.3793 1.1378 0.3793 -27.4472 0.3593 -25.2714 0 -28.5451 -0.0399 -27.7466 -0.2795z"/>
</g>
 <g id="layer104" fill="#dab78d" stroke="none">
  <path d="M0 45.1132 l0 -45.1132 52 0 52 0 0 45.1132 0 45.1132 -52 0 -52 0 0 -45.1132z m83.4395 33.6353 l16.1689 -8.0845 0 -29.3436 0 -29.3436 -16.2488 8.1244 -16.2488 8.1244 -4.5712 -1.4173 c-11.5378 -3.5931 -18.225 -5.729 -18.225 -5.8288 0 -0.0599 0.8384 -0.5789 1.8564 -1.1378 0.9981 -0.539 4.8906 -2.6948 8.6234 -4.7908 l6.7869 -3.7727 -0.9981 -0.1397 c-0.5589 -0.0599 -2.9543 -0.1397 -5.3298 -0.1397 -2.3954 -0.02 -4.3516 -0.0998 -4.3516 -0.1797 0 -0.0998 2.9144 -2.2357 6.4875 -4.7509 5.4695 -3.8326 6.4875 -4.6311 6.4875 -5.0303 0 -0.4392 -0.0399 -0.4591 -0.3992 -0.2196 -0.2196 0.1597 -2.076 1.4572 -4.1321 2.8944 -9.901 6.8868 -22.4967 15.4902 -22.9559 15.6699 -1.1777 0.4392 -30.0223 8.1643 -32.3578 8.6633 l-0.6388 0.1397 0 29.3236 0 29.3236 31.9386 0 31.9386 0 16.1689 -8.0845z"/>
  <path d="M31.2399 44.3148 c-5.3697 -0.3593 -9.861 -1.557 -10.7593 -2.8345 -0.5789 -0.8184 -0.3393 -0.9582 0.539 -0.2994 3.5532 2.7148 18.744 3.3536 26.0499 1.1179 1.577 -0.499 2.3155 -0.8583 2.8545 -1.3973 0.3593 -0.3593 0.3793 -0.3593 0.3793 -0.02 0 0.8184 -1.6568 1.7965 -4.1121 2.4154 -3.4534 0.8783 -10.1605 1.3374 -14.9512 1.018z"/>
  <path d="M8.8829 27.7267 c1.1578 -0.3593 2.2357 -0.3793 27.4472 -0.3793 25.3912 0 26.2894 0.02 27.4472 0.3992 1.1977 0.3793 1.1378 0.3793 -27.4472 0.3793 -28.4054 -0.02 -28.6449 -0.02 -27.4472 -0.3992z"/>
</g>
 <g id="layer105" fill="#fefefe" stroke="none">
  <path d="M0 45.1132 l0 -45.1132 52 0 52 0 0 45.1132 0 45.1132 -52 0 -52 0 0 -45.1132z m83.4395 33.6353 l16.1689 -8.0845 0 -29.3436 0 -29.3236 -0.8583 -0.2196 c-0.4591 -0.1198 -1.0979 -0.2994 -1.4372 -0.3992 -1.8165 -0.5589 -23.914 -6.3877 -24.1735 -6.3877 -0.1797 0 -2.7547 1.3574 -5.729 3.0342 -4.9704 2.7747 -5.5094 3.0342 -6.4276 3.0541 -4.7109 0 -10.0806 -0.1397 -10.0806 -0.2595 0 -0.0998 2.9144 -2.2357 6.4875 -4.7509 5.3098 -3.7129 6.4875 -4.6311 6.4875 -5.0104 0 -0.2595 -0.0798 -0.4591 -0.1597 -0.4591 -0.0998 0 -5.2299 1.2576 -11.418 2.7946 -12.0568 3.0142 -11.1985 2.7148 -15.3704 5.19 -1.038 0.6188 -3.8726 2.2756 -6.2879 3.6929 -2.4154 1.4173 -5.3298 3.114 -6.4875 3.8127 -1.1578 0.6787 -2.4154 1.4173 -2.7946 1.6369 -3.2338 1.8365 -16.0491 9.382 -16.7079 9.8411 -0.4591 0.3194 -0.9182 0.5789 -1.038 0.5789 -0.1597 0 -0.2196 8.3639 -0.2196 29.3436 l0 29.3436 31.9386 0 31.9386 0 16.1689 -8.0845z"/>
</g>

</svg>