<?xml version="1.0" encoding="iso-8859-1"?>
<!-- Generator: Adobe Illustrator 15.0.0, SVG Export Plug-In . SVG Version: 6.00 Build 0)  -->
<!DOCTYPE svg PUBLIC "-//W3C//DTD SVG 1.1//EN" "http://www.w3.org/Graphics/SVG/1.1/DTD/svg11.dtd">
<svg version="1.1" id="Laag_1" xmlns="http://www.w3.org/2000/svg" xmlns:xlink="http://www.w3.org/1999/xlink" x="0px" y="0px"
	 width="85.04px" height="85.04px" viewBox="0 0 85.04 85.04" style="enable-background:new 0 0 85.04 85.04;" xml:space="preserve"
	>
<path style="fill:#646464;stroke:#000000;stroke-width:1.4173;" d="M26.248,21.001l37.547-6.488c0,0-0.701-5.208-10.152-5.208
	c-9.452,0-26.779,0-26.779,0l-7.789,2.826c-0.816,0.338-1.503,0.986-1.867,1.867c-0.365,0.879-0.338,1.824,0,2.641
	c0.337,0.814,0.986,1.502,1.866,1.866L26.248,21.001z"/>
<polygon style="fill:#646464;stroke:#000000;stroke-width:1.4173;" points="59.219,77.451 31.336,77.451 25.941,17.337 
	64.107,17.337 "/>
<path style="fill:none;stroke:#000000;stroke-width:1.4173;" d="M48.545,8.883c0,0,0.264-0.521,0.587-1.157
	c0.322-0.637,1.224-1.158,2.004-1.158h6.722c0.779,0,1.682,0.521,2.004,1.158c0.322,0.636,1.621,3.725,1.621,3.725"/>
<path style="fill:none;stroke:#000000;stroke-width:1.4173;" d="M37.016,17.842"/>
<path style="fill:none;stroke:#000000;stroke-width:1.4173;" d="M47.344,17.842"/>
<circle style="fill:#646464;stroke:#000000;stroke-width:1.4173;" cx="29.917" cy="70.787" r="6.661"/>
<path style="fill:#646464;stroke:#000000;stroke-width:1.4173;" d="M26.381,70.788c0,1.957,1.584,3.539,3.537,3.539
	c1.951,0,3.533-1.582,3.533-3.539c0-1.953-1.582-3.534-3.533-3.534C27.965,67.254,26.381,68.835,26.381,70.788z"/>
<rect x="23.383" y="13.333" style="fill:#646464;stroke:#000000;stroke-width:1.4173;" width="44.775" height="3.966"/>
<circle cx="20.395" cy="15.316" r="1.25"/>
<line style="fill:none;stroke:#000000;stroke-width:1.4173;" x1="51.394" y1="26.332" x2="51.394" y2="17.922"/>
<line style="fill:none;stroke:#000000;stroke-width:1.4173;" x1="38.65" y1="26.332" x2="38.65" y2="17.922"/>
</svg>
