<?xml version="1.0" encoding="utf-8"?>
<!-- Generator: Adobe Illustrator 15.0.1, SVG Export Plug-In . SVG Version: 6.00 Build 0)  -->
<!DOCTYPE svg PUBLIC "-//W3C//DTD SVG 1.1//EN" "http://www.w3.org/Graphics/SVG/1.1/DTD/svg11.dtd">
<svg version="1.1" id="Laag_1" xmlns="http://www.w3.org/2000/svg" xmlns:xlink="http://www.w3.org/1999/xlink" x="0px" y="0px"
	 width="85.04px" height="85.04px" viewBox="0 0 85.04 85.04" enable-background="new 0 0 85.04 85.04" xml:space="preserve">
<path fill="#009245" stroke="#000000" d="M25.398,20.001l37.547-6.488c0,0-0.701-5.208-10.152-5.208c-9.452,0-26.779,0-26.779,0
	l-7.789,2.826c-0.816,0.338-1.503,0.986-1.867,1.867c-0.365,0.879-0.338,1.824,0,2.641c0.337,0.814,0.986,1.502,1.866,1.866
	L25.398,20.001z"/>
<polygon fill="#009245" stroke="#000000" points="58.369,76.451 30.486,76.451 25.092,16.337 63.258,16.337 "/>
<path fill="none" stroke="#000000" stroke-width="1.4173" d="M47.695,7.883c0,0,0.264-0.521,0.587-1.157
	c0.322-0.637,1.224-1.158,2.004-1.158h6.722c0.779,0,1.682,0.521,2.004,1.158c0.322,0.636,1.621,3.725,1.621,3.725"/>
<path fill="none" stroke="#000000" stroke-width="1.4173" d="M36.166,16.842"/>
<path fill="none" stroke="#000000" stroke-width="1.4173" d="M46.494,16.842"/>
<circle fill="#646464" stroke="#000000" stroke-width="1.4173" cx="29.068" cy="69.787" r="6.661"/>
<path fill="#646464" stroke="#000000" stroke-width="1.4173" d="M25.531,69.788c0,1.957,1.584,3.539,3.537,3.539
	c1.951,0,3.533-1.582,3.533-3.539c0-1.953-1.582-3.534-3.533-3.534C27.115,66.254,25.531,67.835,25.531,69.788z"/>
<rect x="22.533" y="12.333" fill="#009245" stroke="#000000" width="44.775" height="3.966"/>
<circle cx="19.545" cy="14.316" r="1.25"/>
<line fill="none" stroke="#000000" stroke-width="1.4173" x1="50.544" y1="25.332" x2="50.544" y2="16.922"/>
<line fill="none" stroke="#000000" stroke-width="1.4173" x1="37.801" y1="25.332" x2="37.801" y2="16.922"/>
</svg>
